<?xml version="1.0" encoding="UTF-8"?>
<svg id="Icon" xmlns="http://www.w3.org/2000/svg" viewBox="0 0 1724.67 1481.03">
  <defs>
    <style>
      .cls-1 {
        fill: #1a191a;
        opacity: .25;
      }
    </style>
  </defs>
  <rect id="Fill" class="cls-1" x="180" y="534.25" width="1364.67" height="766.78"/>
  <path class="cls-1" d="M1563.24,0H161.42C72.41,0,0,72.41,0,161.42v1158.18c0,89.01,72.41,161.42,161.42,161.42h1401.82c89.01,0,161.42-72.42,161.42-161.42V161.42c0-89.01-72.42-161.42-161.42-161.42ZM161.42,90h1401.82c39.38,0,71.42,32.04,71.42,71.42v192.82H90v-192.82c0-39.38,32.04-71.42,71.42-71.42ZM1563.24,1391.03H161.42c-39.38,0-71.42-32.04-71.42-71.42V444.25h1544.67v875.36c0,39.38-32.04,71.42-71.42,71.42Z"/>
  <circle id="Close" class="cls-1" cx="1508.24" cy="224.89" r="89.17"/>
  <circle id="Maximize" class="cls-1" cx="1298.03" cy="224.89" r="89.17"/>
  <circle id="Minimize" class="cls-1" cx="1087.83" cy="224.89" r="89.17"/>
</svg>