<?xml version="1.0" encoding="UTF-8"?>
<svg id="Icon" xmlns="http://www.w3.org/2000/svg" viewBox="0 0 2048 2048">
  <defs>
    <style>
      .cls-1 {
        fill: #f3f3f3;
      }
    </style>
  </defs>
  <path class="cls-1" d="M1802.94,0H245.06C109.72,0,0,109.72,0,245.06v1557.87c0,135.35,109.72,245.06,245.06,245.06h495.76c13.83-11.04,19.63-28.44,19.63-44.25,0-25.84-1.81-114.42-1.81-206.71-307.79,66.45-371.88-132.88-371.88-132.88-49.46-129.18-122.75-162.39-122.75-162.39-100.74-68.28,7.34-68.28,7.34-68.28,111.74,7.38,170.38,114.42,170.38,114.42,98.9,169.77,258.28,121.8,322.39,92.27,9.15-71.98,38.48-121.8,69.62-149.48-245.48-25.84-503.76-121.8-503.76-549.96,0-121.8,43.94-221.45,113.56-298.95-10.98-27.68-49.46-142.12,11.01-295.28,0,0,93.42-29.53,304.07,114.42,90.19-24.4,183.19-36.81,276.62-36.92,93.42,0,188.66,12.93,276.6,36.92,210.67-143.95,304.09-114.42,304.09-114.42,60.47,153.17,21.97,267.61,10.98,295.28,71.45,77.5,113.58,177.15,113.58,298.95,0,428.16-258.28,522.26-505.59,549.96,40.31,35.06,75.1,101.49,75.1,206.68,0,149.48-1.81,269.44-1.81,306.34,0,15.82,5.81,33.22,19.64,44.27h475.1c135.35,0,245.06-109.72,245.06-245.06V245.06c0-135.35-109.72-245.06-245.06-245.06Z"/>
</svg>