<?xml version="1.0" encoding="UTF-8"?>
<svg id="Icon" xmlns="http://www.w3.org/2000/svg" viewBox="0 0 2048 2048">
  <defs>
    <style>
      .cls-1 {
        fill: #1a191a;
      }
    </style>
  </defs>
  <path class="cls-1" d="M1802.94,0H245.06C109.72,0,0,109.72,0,245.06v1557.87c0,135.35,109.72,245.06,245.06,245.06h1557.87c135.35,0,245.06-109.72,245.06-245.06V245.06c0-135.35-109.72-245.06-245.06-245.06ZM1130.71,1674.54c0,29.13-9.13,51.65-27.32,67.59-18.23,15.95-44.67,23.92-79.33,23.92s-60.73-7.97-78.08-23.92c-17.35-15.95-26-38.46-26-67.59v-850.51c0-29.11,8.66-51.3,26-66.54,17.35-15.24,43.38-22.89,78.08-22.89s58.94,7.65,78.01,22.89c19.07,15.24,28.64,37.43,28.64,66.54v850.51ZM1126.82,511.63c-23.43,23.71-57.69,35.55-102.76,35.55s-77.23-11.84-101.51-35.55c-24.28-23.68-36.42-55.71-36.42-96.08s12.14-74.15,36.42-96.12c24.28-21.93,58.13-32.92,101.51-32.92s79.33,10.98,102.76,32.92c23.4,21.97,35.13,53.99,35.13,96.12s-11.73,72.4-35.13,96.08Z"/>
</svg>