<?xml version="1.0" encoding="UTF-8"?>
<svg id="Icon" xmlns="http://www.w3.org/2000/svg" viewBox="0 0 2048 2048">
  <defs>
    <style>
      .cls-1 {
        fill: #f3f3f3;
      }
    </style>
  </defs>
  <path class="cls-1" d="M1563.19,1118c-76-213.44-185.06-213.44-212.32-213.44v.07s-.09,0-.09,0c-57.71.11-108.97,0-172.49,69.32-50-5.24-102.24-7.85-154.52-7.78h-.04c-52.28-.08-104.52,2.54-154.51,7.78-63.52-69.32-114.78-69.2-172.49-69.32h-.11v-.06c-27.28,0-136.31.04-212.3,213.44l-81.65,292.8c-60.49,217.84,19.36,223.16,118.97,223.35,147.72-5.5,229.52-112.78,229.52-220.04,81.76,13.4,177.16,20.11,272.56,20.11h.04c95.39,0,190.79-6.71,272.56-20.11,0,107.26,81.79,214.54,229.52,220.04,99.61-.19,179.47-5.52,118.98-223.35l-81.63-292.81ZM1105.47,1261.84v88.73c0,4.15-40.84,2.46-81.69.57h-.04c-40.87,1.89-81.7,3.58-81.7-.57v-88.73l-101.74,4.08c27.93-50.75,183.3-193.44,183.44-193.58v-.04h.01s.02,0,.02,0v.04s155.5,142.83,183.44,193.58l-101.74-4.08Z"/>
  <path class="cls-1" d="M1802.94,0H245.06C109.72,0,0,109.72,0,245.06v1557.87c0,135.35,109.72,245.06,245.06,245.06h1557.87c135.35,0,245.06-109.72,245.06-245.06V245.06c0-135.35-109.72-245.06-245.06-245.06ZM1689.23,1757.22c-142,33.11-403.31,48.19-665.45,48.28h-.04c-262.15-.09-523.45-15.17-665.46-48.28-91.64-93.46-73.34-473.82-74.83-643.54.14-32.7.28-56.24.43-84.86v-.32c1.17-56.36,4.45-133.67,12.22-214.56,5.59,1.92,12.5,3.76,19.15,3.76,53.03.05,103.97-20.69,141.89-57.76,13.24-12.96,26.05-26.79,35.24-42.94l.04-.03c9.2,16.12,19.24,29.96,32.46,42.91,37.91,37.1,88.85,57.85,141.89,57.8,55.12,0,105.12-22.11,141.59-57.77,13.32-12.94,24.76-27.67,34-43.78l.02-.02c9.14,16.09,20.48,30.82,33.69,43.78,37.92,37.09,88.86,57.83,141.9,57.78,1.94,0,3.86-.09,5.78-.14h.05c1.92.06,3.84.14,5.76.14,53.04.05,103.99-20.7,141.9-57.79,13.21-12.96,24.55-27.69,33.69-43.78,9.24,16.11,20.68,30.84,34,43.78,36.48,35.66,86.48,57.78,141.59,57.78,53.04.05,103.98-20.7,141.88-57.79,13.22-12.94,23.25-26.79,32.46-42.91l.04.03c9.2,16.15,22,29.98,35.24,42.94,37.92,37.07,88.86,57.81,141.89,57.76,6.65,0,13.56-1.84,19.15-3.76,7.77,80.89,11.05,158.19,12.2,214.56l.02.32c.14,28.63.27,52.17.43,84.86-1.49,169.72,16.81,550.08-74.83,643.54ZM1896.42,582.63c0,94.83-88.63,178.15-169.1,178.15-96.62,0-177.14-80.08-177.14-175.12,0,95.04-77.75,175.12-174.38,175.12s-171.88-80.08-171.88-175.12c0,95.04-82.67,175.12-179.3,175.12h-1.75c-96.63,0-179.3-80.08-179.3-175.12,0,95.04-75.25,175.12-171.89,175.12s-174.38-80.08-174.38-175.12c0,95.04-80.51,175.12-177.14,175.12-80.47,0-169.1-83.34-169.1-178.15v-74.8c1.42-45.19,151.41-217.5,227.55-262.7h-.01c67.35-5.87,400.65-9.69,645.13-9.71,244.48-.04,408.52,1.4,645.14,9.71,76.12,45.19,226.11,217.51,227.53,262.7v74.8Z"/>
</svg>