<?xml version="1.0" encoding="UTF-8"?>
<svg id="Icon" xmlns="http://www.w3.org/2000/svg" viewBox="0 0 2048 2048">
  <defs>
    <style>
      .cls-1 {
        fill: #f3f3f3;
      }
    </style>
  </defs>
  <path class="cls-1" d="M1802.94,0H245.06C109.72,0,0,109.72,0,245.06v1557.87c0,135.35,109.72,245.06,245.06,245.06h1557.87c135.35,0,245.06-109.72,245.06-245.06V245.06c0-135.35-109.72-245.06-245.06-245.06ZM609.3,1739.88h-307.76v-977.72h307.76v977.72ZM455.42,626.69c-98,0-177.44-74.59-177.44-176.66s79.44-176.74,177.44-176.74,177.44,74.67,177.44,176.74-79.44,176.66-177.44,176.66ZM1743.95,1740.63h-307.76v-534.02c0-157.56-66.98-206.14-153.37-206.14-91.32,0-180.86,68.73-180.86,210.07v530.09h-307.76v-977.72h295.98v135.46h3.92c29.78-60.19,133.74-162.95,292.53-162.95,171.74,0,357.32,101.87,357.32,400.51v604.7Z"/>
</svg>