<?xml version="1.0" encoding="UTF-8"?>
<svg id="Icon" xmlns="http://www.w3.org/2000/svg" viewBox="0 0 2048 2048">
  <defs>
    <style>
      .cls-1 {
        fill: #1a191a;
      }
    </style>
  </defs>
  <path class="cls-1" d="M1802.94,0H245.06C109.72,0,0,109.72,0,245.06v1557.87c0,135.35,109.72,245.06,245.06,245.06h1557.87c135.35,0,245.06-109.72,245.06-245.06V245.06c0-135.35-109.72-245.06-245.06-245.06ZM1883.48,1768.36c0,55.37-44.89,100.25-100.25,100.25h-578.82c-55.37,0-100.25-44.89-100.25-100.25v-398.3c0-55.37,44.89-100.25,100.25-100.25h239.56v-164.34h-841.59v163.6h239.56c55.37,0,100.25,44.89,100.25,100.25v398.3c0,55.37-44.89,100.25-100.25,100.25H263.1c-55.37,0-100.25-44.89-100.25-100.25v-398.3c0-55.37,44.89-100.25,100.25-100.25h209.27v-228.6c0-35.9,29.1-65,65-65h421.64v-204.79h-224.44c-55.37,0-100.25-44.89-100.25-100.25v-398.3c0-55.37,44.89-100.25,100.25-100.25h578.82c55.37,0,100.25,44.89,100.25,100.25v398.3c0,55.37-44.89,100.25-100.25,100.25h-224.39v204.79h419.96c35.9,0,65,29.1,65,65v229.34h209.27c55.37,0,100.25,44.89,100.25,100.25v398.3Z"/>
</svg>