<?xml version="1.0" encoding="UTF-8"?>
<svg id="Icon" xmlns="http://www.w3.org/2000/svg" viewBox="0 0 2048 2048">
  <defs>
    <style>
      .cls-1 {
        fill: #1a191a;
      }
    </style>
  </defs>
  <path class="cls-1" d="M1802.94,0H245.06C109.72,0,0,109.72,0,245.06v1557.87c0,135.35,109.72,245.06,245.06,245.06h1557.87c135.35,0,245.06-109.72,245.06-245.06V245.06c0-135.35-109.72-245.06-245.06-245.06ZM1871.16,1100.62c0,51.52-41.77,93.29-93.29,93.29h-118.88c-14.54,53.25-35.6,103.81-62.26,150.78l113.38,113.38c36.43,36.43,36.43,95.5,0,131.93l-114.2,114.2c-36.43,36.43-95.5,36.43-131.93,0l-112.66-112.66c-47.91,27.56-99.6,49.26-154.12,64.15v118.88c0,51.52-41.77,93.29-93.29,93.29h-161.5c-51.52,0-93.29-41.77-93.29-93.29v-118.88c-53.25-14.54-103.81-35.6-150.78-62.26l-113.38,113.38c-36.43,36.43-95.5,36.43-131.93,0l-114.2-114.2c-36.43-36.43-36.43-95.5,0-131.93l112.66-112.66c-27.56-47.91-49.26-99.6-64.15-154.12h-118.88c-51.52,0-93.29-41.77-93.29-93.29v-161.5c0-51.52,41.77-93.29,93.29-93.29h118.88c14.72-53.88,36.1-105.01,63.2-152.45l-111.72-111.72c-36.43-36.43-36.43-95.5,0-131.93l114.2-114.2c36.43-36.43,95.5-36.43,131.93,0l111.72,111.72c48.2-27.54,100.22-49.18,155.06-63.91v-118.17c0-51.52,41.77-93.29,93.29-93.29h161.5c51.52,0,93.29,41.77,93.29,93.29v119.6c52.29,14.51,101.97,35.31,148.17,61.53l113.38-113.38c36.43-36.43,95.5-36.43,131.93,0l114.2,114.2c36.43,36.43,36.43,95.5,0,131.93l-112.66,112.66c27.56,47.91,49.26,99.6,64.15,154.12h118.88c51.52,0,93.29,41.77,93.29,93.29v161.5Z"/>
  <circle class="cls-1" cx="1023.16" cy="1019.87" r="384.15"/>
</svg>