<?xml version="1.0" encoding="UTF-8"?>
<svg id="Icon" xmlns="http://www.w3.org/2000/svg" viewBox="0 0 2048 2048">
  <defs>
    <style>
      .cls-1 {
        fill: #f3f3f3;
      }
    </style>
  </defs>
  <polygon class="cls-1" points="1037.83 900.22 661.94 362.54 461.41 362.54 927.19 1028.79 985.73 1112.51 985.73 1112.55 1384.45 1682.86 1584.98 1682.86 1096.37 983.95 1037.83 900.22"/>
  <path class="cls-1" d="M1802.94,0H245.06C109.72,0,0,109.72,0,245.06v1557.87c0,135.35,109.72,245.06,245.06,245.06h1557.87c135.35,0,245.06-109.72,245.06-245.06V245.06c0-135.35-109.72-245.06-245.06-245.06ZM1323.03,1776.67l-403.49-587.21-505.17,587.21h-130.56l577.76-671.56L283.81,264.26h440.67l382.07,556.05,478.37-556.05h130.55l-550.92,640.4h-.03l599.19,872.01h-440.67Z"/>
</svg>